<svg xmlns="http://www.w3.org/2000/svg" width="800" height="600" viewBox="0 0 800 600" role="img" aria-label="Princess Bird artwork">
  <defs>
    <linearGradient id="g1" x1="0" x2="1">
      <stop offset="0" stop-color="#ff9bb3"/>
      <stop offset="1" stop-color="#ff6b81"/>
    </linearGradient>
  </defs>
  <rect width="100%" height="100%" fill="none" />
  <!-- stylized bird character -->
  <g transform="translate(200,120) scale(1.2)">
    <ellipse cx="200" cy="160" rx="160" ry="120" fill="#ffdede"/>
    <ellipse cx="200" cy="120" rx="120" ry="100" fill="url(#g1)"/>
    <circle cx="240" cy="100" r="10" fill="#081026"/>
    <path d="M160 140 Q140 120 140 100 Q160 110 170 90" fill="#fff1"/>
    <path d="M260 140 Q280 120 280 100 Q260 110 250 90" fill="#fff1"/>
    <!-- crown -->
    <polygon points="185,60 200,30 215,60 230,50 245,60 200,20" fill="#ffd36b"/>
    <!-- wing -->
    <path d="M100 180 Q150 120 260 160 Q200 220 120 200" fill="#ffb3c1"/>
    <!-- tail -->
    <path d="M340 180 Q380 160 420 200 Q380 210 340 200" fill="#ff8aa2"/>
  </g>
</svg>